<svg viewBox="0 0 272 97" fill="none" xmlns="http://www.w3.org/2000/svg">
<path d="M223.5 97H48.5C21.8 97 0 75.2 0 48.5C0 21.8 21.8 0 48.5 0H223.5C250.2 0 272 21.8 272 48.5C272 75.2 250.2 97 223.5 97ZM48.5 5C24.5 5 5 24.5 5 48.5C5 72.5 24.5 92 48.5 92H223.5C247.5 92 267 72.5 267 48.5C267 24.5 247.5 5 223.5 5H48.5Z" fill="#010100"/>
<path d="M205.6 69.8V27.6H210.2V64.8H227.3V69.8H205.6Z" fill="#010100"/>
<path d="M196.5 27.5H201.1V51.9C201.1 56 200.7 59.3 199.9 62C199.1 64.6 197.7 66.7 195.6 68.2C193.5 69.7 190.8 70.5 187.6 70.5C183 70.5 179.6 69.1 177.3 66.4C175 63.7 173.9 58.9 173.9 51.9V27.5H178.5V51.9C178.5 55.7 178.8 58.5 179.4 60.2C180 61.9 181 63.2 182.3 64.1C183.7 65 185.3 65.4 187.2 65.4C190.5 65.4 192.8 64.5 194.3 62.6C195.8 60.8 196.5 57.2 196.5 51.8V27.5Z" fill="#010100"/>
<path d="M142 56.2L146.3 55.7C146.5 58 147.1 59.7999 147.9 61.0999C148.7 62.3999 149.9 63.4 151.4 64.2C152.9 65 154.6 65.4 156.5 65.4C159.2 65.4 161.3 64.7 162.9 63.4C164.4 62.1 165.2 60.3 165.2 58.2C165.2 57 164.9 55.9 164.4 54.9C163.9 54 163 53.1999 161.9 52.5999C160.8 51.9999 158.4 51.1999 154.7 50.0999C151.4 49.0999 149.1 48.2 147.7 47.2C146.3 46.2 145.2 44.9999 144.5 43.4999C143.7 41.9999 143.3 40.3 143.3 38.4C143.3 35 144.4 32.1999 146.6 29.9999C148.8 27.7999 151.8 26.7 155.5 26.7C158.1 26.7 160.3 27.2 162.3 28.2C164.2 29.2 165.7 30.6999 166.8 32.5999C167.9 34.4999 168.4 36.7 168.5 39.3L164.1 39.7C163.9 37 163 34.8999 161.6 33.5999C160.2 32.2999 158.2 31.5999 155.7 31.5999C153.1 31.5999 151.1 32.2 149.8 33.3C148.4 34.5 147.8 36 147.8 37.8C147.8 39.5 148.3 40.8 149.3 41.8C150.3 42.7 152.5 43.7 156 44.7C159.4 45.6 161.8 46.5 163.2 47.2C165.3 48.3 166.9 49.6999 168 51.4999C169.1 53.2999 169.6 55.4 169.6 57.8C169.6 60.2 169 62.4 167.9 64.4C166.8 66.4 165.2 67.9 163.3 68.9C161.4 69.9 159 70.4999 156.3 70.4999C152 70.4999 148.6 69.1999 146.1 66.5999C143.4 64.0999 142.1 60.6 142 56.2Z" fill="#010100"/>
<path d="M112.4 69.8V27.6H125.5C128.6 27.6 130.8 27.9 132.3 28.4C134.3 29.1 135.9 30.5 137.1 32.5C138.3 34.5 138.9 36.9 138.9 39.8C138.9 43.6 137.9 46.7 136 49.1C134.1 51.5 130.7 52.7 125.9 52.7H117V69.9H112.4V69.8ZM117 47.6H126C128.8 47.6 130.9 47 132.2 45.7C133.5 44.4 134.2 42.5 134.2 39.9C134.2 38.2 133.9 36.8 133.2 35.6C132.6 34.4 131.8 33.6 130.9 33.2C130 32.8 128.3 32.5 126 32.5H117.1V47.6H117Z" fill="#010100"/>
<path d="M76.2998 69.8L89.6998 27.6H94.5998L108.8 69.8H103.6L99.5998 57H84.9998L81.1998 69.8H76.2998ZM86.2998 52.4H98.0998L94.4998 40.7C93.3998 37.1 92.5998 34.2 92.0998 31.9C91.6998 34.6 90.9998 37.3 90.1998 40L86.2998 52.4Z" fill="#010100"/>
<path d="M71 54.9999L75.6 56.3999C74.6 61.0999 72.8 64.6999 70.3 66.9999C67.8 69.2999 64.7 70.4999 61 70.4999C57.8 70.4999 55.1 69.6999 52.8 68.1999C50.5 66.5999 48.7 64.0999 47.2 60.6999C45.7 57.1999 45 53.1999 45 48.3999C45 43.6999 45.7 39.7999 47.2 36.5999C48.7 33.3999 50.6 30.9999 53.1 29.2999C55.6 27.6999 58.3 26.7999 61.4 26.7999C64.7 26.7999 67.6 27.7999 70 29.8999C72.4 31.9999 74.1 34.9999 75 39.0999L70.5 40.3999C69 34.4999 65.9 31.5999 61.2 31.5999C58.9 31.5999 56.9 32.1999 55.2 33.3999C53.5 34.5999 52.2 36.3999 51.1 38.8999C50 41.3999 49.6 44.5999 49.6 48.3999C49.6 54.1999 50.6 58.4999 52.7 61.3999C54.7 64.2999 57.4 65.6999 60.8 65.6999C63.3 65.6999 65.5 64.7999 67.3 62.9999C69.2 61.2999 70.4 58.5999 71 54.9999Z" fill="#010100"/>
</svg>
